<svg id="Calque_1" data-name="Calque 1" xmlns="http://www.w3.org/2000/svg" viewBox="0 0 287.91 9.75"><title>bordure-gauche-menu1</title><path d="M6.4,19c-.74-5.58,1.47-8.49,7.39-8.71,9-.34,18-.25,27,0,17.13.44,34.26,1.45,51.4,1.61,30.82.27,61.64.17,92.45,0,18.48-.07,37-.78,55.43-.64,16.47.13,32.94,1,49.4,1.69,1.61.07,3.16,1.58,4.73,2.42-1.63.9-3.19,2.44-4.89,2.61-38.24,3.81-76.51.42-114.77.23q-28.72-.14-57.47.08c-35.44.26-70.88.65-106.33,1C9.25,19.31,7.79,19.11,6.4,19Z" transform="translate(-6.26 -10.09)"/></svg>