<svg id="Calque_1" data-name="Calque 1" xmlns="http://www.w3.org/2000/svg" viewBox="0 0 411 55"><defs><style>.cls-1{fill:#fcfefc;}.cls-2{fill:#7cc75d;}.cls-3{fill:#6cb953;}.cls-4{fill:#45993f;}.cls-5{fill:#5bab4a;}.cls-6{fill:#52a345;}.cls-7{fill:#75c059;}.cls-8{fill:#42963d;}.cls-9{fill:#85cd63;}.cls-10{fill:#62b14f;}.cls-11{fill:#a0e470;}.cls-12{fill:#4a9c41;}.cls-13{fill:#71bd56;}.cls-14{fill:#b3f479;}.cls-15{fill:#5fae4d;}.cls-16{fill:#8cd465;}.cls-17{fill:#90d768;}.cls-18{fill:#4ea044;}.cls-19{fill:#94da69;}.cls-20{fill:#89d262;}.cls-21{fill:#a4e971;}.cls-22{fill:#56a748;}.cls-23{fill:#99df6b;}.cls-24{fill:#86d062;}.cls-25{fill:#9be16d;}.cls-26{fill:#adee77;}.cls-27{fill:#b9f880;}.cls-28{fill:#aff177;}.cls-29{fill:#aaec76;}.cls-30{fill:#51a245;}.cls-31{fill:#a3e773;}.cls-32{fill:#97dd6b;}.cls-33{fill:#bdfc83;}.cls-34{fill:#7dc561;}.cls-35{fill:#cafb9c;}.cls-36{fill:#74be5a;}.cls-37{fill:#bffc86;}.cls-38{fill:#57a749;}.cls-39{fill:#68b551;}</style></defs><title>bordure-doite 1</title><path class="cls-1" d="M439,501.9q100.45,0,200.91.1c3.42,0,4.15-.66,4.1-4.09-.23-16-.17-31.9,0-47.86,0-2.49-.57-3.05-3.06-3.05q-202.41.11-404.81,0c-2.5,0-3.09.56-3.07,3.05.13,16.12.17,32.24,0,48.36,0,3,.61,3.58,3.59,3.58Q337.8,501.83,439,501.9Z" transform="translate(-233 -447)"/><path class="cls-2" d="M456,474H430c-1.48,1.6-1.59,3.56-1.42,5.57.22,2.42,1.16,3.95,4,3.87,7.75-.21,15.51.22,23.26-.22C458.21,480.21,458,477.14,456,474Z" transform="translate(-233 -447)"/><path class="cls-3" d="M518.91,471.25c-8.35,0-16.72-.79-25,1a16.71,16.71,0,0,1-6.9,0l-2,.86a7.72,7.72,0,0,0-.19,9,18.34,18.34,0,0,0,8.37,0l41.74-.32c-1-2.69-3.36-1.85-5.3-2.15-4-.16-8.09-.14-12.13,0-3-.08-5.91.12-8.87-.08-1.91-.13-3.06-1-3-3.08s1.33-2.79,3.19-2.92c2.62-.17,5.26.12,7.89-.26C517.68,472.89,518.81,472.67,518.91,471.25Z" transform="translate(-233 -447)"/><path class="cls-4" d="M624.87,471.2l-18,.85c-3.27,3.14-2.95,6.68-1.16,10.39,7.69,1.24,15.41.12,23.11.32.07-1.36-1-1.53-1.92-1.77-5-1.27-5.9-3.71-2.85-8.09C624.47,472.36,625,471.94,624.87,471.2Z" transform="translate(-233 -447)"/><path class="cls-5" d="M542,481.83l15,1a9.53,9.53,0,0,0,0-10.65l-13.88-.21a1.06,1.06,0,0,0-1.58.27C540.16,475.48,539.82,478.72,542,481.83Z" transform="translate(-233 -447)"/><path class="cls-6" d="M581.86,471.26l-15.92.88c-2.17,3.26-2,6.58-.2,9.92a9.35,9.35,0,0,0,5.59,0c2.88.63,5.73,0,8.6-.17C582.07,478.63,581.11,474.79,581.86,471.26Z" transform="translate(-233 -447)"/><path class="cls-7" d="M456,474l0,8.86a31.68,31.68,0,0,0,12.12.13l3.85-.13a7.65,7.65,0,0,0,.13-9.06,45.55,45.55,0,0,0-13.19.12Z" transform="translate(-233 -447)"/><path class="cls-8" d="M624.87,471.2c-2.74,1.32-4.78,7.64-3.32,10.07.56.93,1.37.59,2.13.69,1.73.21,3.62-.59,5.18.8,4.39-1.49,7.28-7.57,4.75-10.75C631.24,469,627.82,471.25,624.87,471.2Z" transform="translate(-233 -447)"/><path class="cls-9" d="M468.13,483,456,482.9c-6.66,0-13.34-.26-20,.14-4.76.29-6.86-1.15-6.06-6a18.62,18.62,0,0,0,0-3,33.16,33.16,0,0,0-10.66-.37c.56,3.08-.37,6.43,1.66,9.26,14.74,1.52,29.51.84,44.28.72A14.51,14.51,0,0,0,468.13,483Z" transform="translate(-233 -447)"/><path class="cls-10" d="M518.91,471.25l-1.93.81a7,7,0,0,0,0,8.74l13,.09a8.37,8.37,0,0,0,0-9.73Z" transform="translate(-233 -447)"/><path class="cls-11" d="M329,472l-2.93.07a6.48,6.48,0,0,0-.11,8.1,85.74,85.74,0,0,0,16.18,0,6.92,6.92,0,0,0,.13-8.22A41.89,41.89,0,0,0,329,472Z" transform="translate(-233 -447)"/><path class="cls-12" d="M605.75,482.44c.35-3.47-.23-7,1.16-10.39a16.47,16.47,0,0,0-7.79-1.13c-2-.52-4.31-1.23-5,1.34-.92,3.28-1.86,6.88,1.79,9.43Z" transform="translate(-233 -447)"/><path class="cls-13" d="M472,474.15l0,8.75,11-.17c.59-.44,1.54,0,2-.83,0-2.95,0-5.89,0-8.84-2-.67-4,0-6,.11C476.72,474.19,474.14,472.61,472,474.15Z" transform="translate(-233 -447)"/><path class="cls-14" d="M284,478.77l3.07.1a5.12,5.12,0,0,0,0-6.83c-6.33-.88-12.66-.32-19,0a4.6,4.6,0,0,0-.22,6C273.2,479.12,278.65,477.84,284,478.77Z" transform="translate(-233 -447)"/><path class="cls-15" d="M530,471.16c0,3.24,0,6.49,0,9.73,1.64.3,3.46-.51,4.93.82l7.06.12,0-9.67c-3.21-1.59-6.71,0-10-.92Z" transform="translate(-233 -447)"/><path class="cls-16" d="M389,480.92l.46.11.47,0c1.89,1.06,4.05,0,6,.72l5.08.2c2.12-2.62.85-6.44,3.16-9-5-1.41-10.09-.89-15.15-.92C386.86,475,387.05,478,389,480.92Z" transform="translate(-233 -447)"/><path class="cls-17" d="M389,480.92V472a5.54,5.54,0,0,0-4.74-.1,4.8,4.8,0,0,0-1.88-.4c-7-.22-8.66,2.66-5.37,9.3Z" transform="translate(-233 -447)"/><path class="cls-18" d="M595.88,481.69c-1.63-2.54-.82-5.38-.92-8.09-.13-3.13,2.35-2.43,4.16-2.68-4.41-1.21-8.8-.18-13.2.17a9.55,9.55,0,0,0,0,10.71Z" transform="translate(-233 -447)"/><path class="cls-19" d="M377,480.8c0-.49,0-1,0-1.46,0-7.22,0-7.22,7.26-7.44-6-1.54-12.16-.72-18.25-.75-2.06,2.8-1.82,5.71-.43,8.67,3.34,1.56,7-.12,10.38,1Z" transform="translate(-233 -447)"/><path class="cls-20" d="M404.17,472.92c-2.17-.06-3.33.8-3.18,3.16.12,1.94,0,3.89,0,5.83a30.23,30.23,0,0,0,11,.89,8.24,8.24,0,0,0,0-9.65Z" transform="translate(-233 -447)"/><path class="cls-21" d="M326.05,480V472l-8.07.18c-1.44.75-3.41-.44-4.59,1.26-.94,2.55-1.2,5,.67,7.32h11A1.61,1.61,0,0,0,326.05,480Z" transform="translate(-233 -447)"/><path class="cls-22" d="M566,482q0-4.9,0-9.81h-9V482.8l9-.07q.52-.25.36-.51C566.17,482,566.06,482,566,482Z" transform="translate(-233 -447)"/><path class="cls-23" d="M362,471.15H352c-2.08,2.93-2,5.91-.18,8.92a31.66,31.66,0,0,0,10.28.05A7.5,7.5,0,0,0,362,471.15Z" transform="translate(-233 -447)"/><path class="cls-24" d="M412,473.15v9.65l9,.12c-.71-3.06,1.63-6.67-1.66-9.26C417,472.72,414.46,473.21,412,473.15Z" transform="translate(-233 -447)"/><path class="cls-25" d="M352.05,479.84v-8.68l-7.05,0c-.87.68-2.16-.13-2.94.85,0,2.61,0,5.21,0,7.82A17.14,17.14,0,0,0,352.05,479.84Z" transform="translate(-233 -447)"/><path class="cls-26" d="M314.07,473c1.32-.16,2.79.38,3.91-.8l-20.92-.08a6,6,0,0,0,0,7.76c5.25,1.32,10.6,1,15.93.91-.6-2.69-3-1.8-4.66-2.28-1.11-.31-2.36-.47-2.44-1.93-.09-1.79,1.33-2,2.64-2.17C310.44,474.18,312.49,474.52,314.07,473Z" transform="translate(-233 -447)"/><path class="cls-27" d="M268.11,477.88l0-5.84-5.08.14c-2.81,1-5.86-.45-8.65.83-2.21,2-5.13,0-7.75,1.42,4.18,3.35,8.4.51,12.48.45,1.09-.46,2.14.28,2.86.13a3,3,0,0,0-1.94.93c-3.75,2.27-8.6-.43-12.69,2.69,3.29.78,6.06.31,8.84.17C260.07,477.7,264.21,479.37,268.11,477.88Z" transform="translate(-233 -447)"/><path class="cls-28" d="M297.06,479.9v-7.76l-10-.11v6.84C290.37,479.45,293.66,480.25,297.06,479.9Z" transform="translate(-233 -447)"/><path class="cls-29" d="M314.07,473c-2.15,0-4.3.06-6.44,0-2.44-.13-3.6.66-3.63,3.34s1,3.82,3.78,3.71c1.74-.07,3.66-.64,5.21.79h1.07C314.06,478.21,314.07,475.61,314.07,473Z" transform="translate(-233 -447)"/><path class="cls-30" d="M585.93,481.8V471.09l-4.06.17c-3.73,3-1.19,7.12-1.93,10.65Z" transform="translate(-233 -447)"/><path class="cls-31" d="M352.05,479.84h-10l-16,.1-1,.84H376c-3.2-1.68-6.64-.43-10-.85a3,3,0,0,0-4-.07Z" transform="translate(-233 -447)"/><path class="cls-32" d="M362,479.86l4,.07v-8.78h-4Z" transform="translate(-233 -447)"/><path class="cls-33" d="M268.11,477.88c-4,.59-8.09-.86-12,.92l27.85,0C278.79,476.93,273.39,478.49,268.11,477.88Z" transform="translate(-233 -447)"/><path class="cls-34" d="M472,474.15c2.27-.59,4.81.67,6.93-1-6.67.27-13.38-.5-20,.79Z" transform="translate(-233 -447)"/><path class="cls-31" d="M342.05,472c1-.07,2.17.15,2.94-.85-5.35.12-10.73-.74-16,.79Z" transform="translate(-233 -447)"/><path class="cls-35" d="M260,475.94h6.48l-.05-1.32c-2.42-.86-4.85-1.26-7.35.26Z" transform="translate(-233 -447)"/><path class="cls-10" d="M532,471.24c3.2,1.59,6.68.25,10,.92l1.08-.22C539.43,470.81,535.71,471.14,532,471.24Z" transform="translate(-233 -447)"/><path class="cls-36" d="M485,481.9l-2,.83c3.4.1,6.81.39,10.13-.7Z" transform="translate(-233 -447)"/><path class="cls-37" d="M254.35,473c2.87-.41,5.91.86,8.65-.83C260.11,472.39,257.07,471.06,254.35,473Z" transform="translate(-233 -447)"/><path class="cls-36" d="M487,472.2a7,7,0,0,0,6.9,0Z" transform="translate(-233 -447)"/><path class="cls-17" d="M395.93,481.71c-1.85-1.41-4-.52-6-.72C391.82,482.25,393.94,481.46,395.93,481.71Z" transform="translate(-233 -447)"/><path class="cls-38" d="M566,482c0,.26,0,.52,0,.78,1.82,0,3.71.5,5.4-.65Z" transform="translate(-233 -447)"/><path class="cls-39" d="M517,480.8c0-2.92,0-5.83,0-8.74-2.64,0-5.29.12-7.91-.1-3.61-.31-5.3.56-5.26,4.77s2.19,4.42,5.28,4.24C511.72,480.82,514.36,480.85,517,480.8Z" transform="translate(-233 -447)"/></svg>