<?xml version="1.0" encoding="utf-8"?>
<!-- Generator: Adobe Illustrator 24.0.1, SVG Export Plug-In . SVG Version: 6.00 Build 0)  -->
<svg version="1.1" id="Calque_1" xmlns="http://www.w3.org/2000/svg" xmlns:xlink="http://www.w3.org/1999/xlink" x="0px" y="0px"
	 viewBox="0 0 572.6 141.73" style="enable-background:new 0 0 572.6 141.73;" xml:space="preserve">
<style type="text/css">
	.st0{fill:#71B85A;}
	.st1{fill:#9DC86B;}
	.st2{fill:#94C569;}
	.st3{fill:#B1D075;}
	.st4{fill:#61B04E;}
	.st5{fill:#78BB5B;}
	.st6{fill:#83BF63;}
	.st7{fill:#4E9D43;}
	.st8{fill:#ABCE78;}
	.st9{fill:#8DC269;}
	.st10{fill:#C0D780;}
	.st11{fill:#5CAB4B;}
	.st12{fill:#47983E;}
	.st13{fill:#52A246;}
	.st14{fill:#55A647;}
</style>
<g>
	<g>
		<path class="st0" d="M222.74,94.53c-16.86-0.78-33.72-1.56-50.58-2.34c0-5.41,0-10.83,0.01-16.24c16.9,0.87,33.8,1.74,50.7,2.6
			C222.83,83.88,222.78,89.2,222.74,94.53z"/>
		<path class="st1" d="M419.43,90.68c-16.37,0.26-32.73,0.53-49.1,0.79c0-5.08,0-10.16,0-15.24c16.38,0,32.77-0.01,49.15-0.01
			C419.47,81.03,419.45,85.86,419.43,90.68z"/>
		<path class="st2" d="M370.34,76.22c0,5.08,0,10.16,0,15.24c-14.12,1.06-28.24,2.13-42.36,3.19c0-5.24,0-10.49,0.01-15.73
			C342.1,78.03,356.22,77.13,370.34,76.22z"/>
		<path class="st3" d="M506.9,87.52c-17.28,1.35-34.55,2.71-51.83,4.06c0-4.59,0-9.19,0-13.78c17.3-0.27,34.59-0.53,51.89-0.8
			C506.94,80.51,506.92,84.01,506.9,87.52z"/>
		<path class="st4" d="M172.17,75.94c0,5.41,0,10.83-0.01,16.24c-12.27,0.48-24.55,0.97-36.82,1.45
			c-0.02-5.43-0.04-10.86-0.05-16.29C147.58,76.88,159.88,76.41,172.17,75.94z"/>
		<path class="st5" d="M222.74,94.53c0.04-5.33,0.09-10.65,0.13-15.98c12.72,0.68,25.43,1.35,38.15,2.03
			c-0.01,5.16-0.02,10.33-0.03,15.49C248.24,95.56,235.49,95.04,222.74,94.53z"/>
		<path class="st6" d="M260.98,96.07c0.01-5.16,0.02-10.33,0.03-15.49c12.3-0.01,24.6-0.02,36.9-0.03
			c-0.02,4.98-0.05,9.97-0.07,14.95C285.56,95.69,273.27,95.88,260.98,96.07z"/>
		<path class="st7" d="M37.22,77.42c8.15-0.55,16.3-1.1,24.45-1.66c6.39-1.3,9.06,1.71,8.09,9.38c-0.33,2.57-0.07,5.25-0.07,7.88
			c-9.56,0.58-19.12,1.17-28.69,1.75c0-4.2,0.37-8.46-0.16-12.56C40.59,80.44,38.48,79.01,37.22,77.42z"/>
		<path class="st8" d="M455.08,77.8c0,4.59,0,9.19,0,13.78c-11.88-0.3-23.76-0.6-35.64-0.9c0.02-4.82,0.04-9.65,0.05-14.47
			C431.35,76.74,443.21,77.27,455.08,77.8z"/>
		<path class="st9" d="M297.85,95.5c0.02-4.98,0.05-9.97,0.07-14.95c10.02-0.54,20.04-1.08,30.06-1.62c0,5.24,0,10.49-0.01,15.73
			C317.93,94.94,307.89,95.22,297.85,95.5z"/>
		<path class="st10" d="M506.9,87.52c0.02-3.51,0.04-7.01,0.06-10.52c13.84,0.69,27.68,1.38,41.52,2.07
			c0.08,1.04,0.17,2.08,0.25,3.11c-2.32,0.54-4.62,1.3-6.96,1.54c-2.63,0.27-5.3,0.06-7.96,1.1c5.02,0.45,10.04,0.9,15.06,1.35
			c-0.03,0.45-0.06,0.9-0.1,1.34C534.81,87.52,520.86,87.52,506.9,87.52z"/>
		<path class="st11" d="M135.29,77.35c0.02,5.43,0.04,10.86,0.05,16.29c-10.06,0.23-20.11,0.46-30.17,0.68c0,0-0.07-0.7-0.07-0.7
			c4.97,0.2,7.85-1.32,5.74-8.27c-0.71-2.34-0.14-5.21-0.16-7.84C118.89,77.46,127.09,77.4,135.29,77.35z"/>
		<path class="st12" d="M37.22,77.42c1.26,1.59,3.37,3.02,3.61,4.79c0.54,4.1,0.17,8.36,0.16,12.56c-1.38-0.03-2.76-0.05-4.14-0.08
			c-4.07,0.01-8.14,0.02-12.21,0.03c-5.95-2.41-9.82-12.25-6.44-17.44c1.04-1.59,3.94-2.23,5.92-2.08
			C28.5,75.53,32.85,76.63,37.22,77.42z"/>
		<path class="st13" d="M69.68,93.02c0.01-2.63-0.25-5.31,0.07-7.88c0.98-7.67-1.7-10.67-8.09-9.38
			c12.81,0.45,25.61,0.91,38.42,1.36C88.84,77.55,88.84,77.55,88.83,91c0,0.79,0,1.59,0,2.38C82.44,93.26,76.06,93.14,69.68,93.02z"
			/>
		<path class="st14" d="M88.82,93.38c0-0.79,0-1.59,0-2.38c0.01-13.44,0.01-13.44,11.26-13.87c3.53,0.13,7.07,0.26,10.6,0.39
			c0.02,2.63-0.55,5.5,0.16,7.84c2.11,6.95-0.77,8.47-5.74,8.27c-2.74-0.05-5.48-0.09-8.22-0.13C94.2,93.45,91.51,93.41,88.82,93.38
			z"/>
		<path class="st7" d="M24.63,94.72c4.07-0.01,8.14-0.02,12.21-0.03C32.78,94.71,28.71,94.72,24.63,94.72z"/>
		<path class="st13" d="M96.88,93.48c2.74,0.04,5.48,0.09,8.22,0.13c0,0,0.07,0.7,0.07,0.7C102.41,94.04,99.65,93.76,96.88,93.48z"
			/>
	</g>
</g>
</svg>
