<?xml version="1.0" encoding="utf-8"?>
<!-- Generator: Adobe Illustrator 24.0.1, SVG Export Plug-In . SVG Version: 6.00 Build 0)  -->
<svg version="1.1" id="Calque_1" xmlns="http://www.w3.org/2000/svg" xmlns:xlink="http://www.w3.org/1999/xlink" x="0px" y="0px"
	 viewBox="0 0 348.86 34.45" style="enable-background:new 0 0 348.86 34.45;" xml:space="preserve">
<style type="text/css">
	.st0{fill:#FEF5FA;}
	.st1{fill:#A6689A;}
	.st2{fill:#D3AFCC;}
	.st3{fill:#BD8DB3;}
	.st4{fill:#E9D2E6;}
</style>
<g>
	<g>
		<path class="st0" d="M348.69,0c0,11.5,0,22.91,0,34.45c-116.13,0-232.26,0-348.52,0c0-11.35,0-22.83,0-34.45
			C116.16,0,232.29,0,348.69,0z M317.63,16.84c-5.99,0.02-11.98,0.04-17.97,0.07c-5.65-0.01-11.3-0.02-16.96-0.03
			c-6.43-0.38-12.85-0.96-19.29-1.1c-20.07-0.43-40.14-0.65-60.22-1.05c-12.09-0.24-24.17-0.65-36.26-0.97
			c-13.08-0.34-26.17-0.67-39.26-1c-13.59-0.34-27.18-0.51-40.76-1.06c-7.72-0.31-15.4-1.35-23.12-1.87
			C59.1,9.52,54.22,8.8,49.67,9.63C36.68,12,23.82,15.07,11.33,17.78c0.66,0.19,2.01,0.68,3.4,0.95
			c10.75,2.03,21.51,4.04,32.28,6.01c2.24,0.41,4.55,0.98,6.78,0.84c12.81-0.85,25.6-2.16,38.42-2.82
			c17.67-0.91,35.37-1.43,53.05-2.03c12.42-0.42,24.84-0.81,37.26-0.98c30.22-0.41,60.45-0.68,90.67-1.03
			c3.16-0.04,6.31-0.17,9.47-0.26c5.66,0.01,11.31,0.01,16.97,0.02c5.98,0.03,11.97,0.05,17.95,0.08c5.43,0,10.86,0,16.29,0
			c-0.02-0.56-0.04-1.13-0.06-1.69C328.42,16.84,323.02,16.84,317.63,16.84z"/>
		<path class="st1" d="M282.67,18.44c-3.16,0.09-6.31,0.23-9.47,0.26c-30.22,0.34-60.45,0.61-90.67,1.03
			c-12.42,0.17-24.84,0.57-37.26,0.98c-17.69,0.6-35.38,1.12-53.05,2.03c-12.82,0.66-25.61,1.96-38.42,2.82
			c-2.23,0.15-4.54-0.43-6.78-0.84c-10.77-1.97-21.53-3.97-32.28-6.01c-1.39-0.26-2.74-0.76-3.4-0.95
			c12.49-2.7,25.34-5.78,38.33-8.15c4.55-0.83,9.43-0.11,14.14,0.21c7.71,0.51,15.4,1.55,23.12,1.87
			c13.58,0.55,27.17,0.72,40.76,1.06c13.09,0.33,26.17,0.65,39.26,1c12.09,0.32,24.17,0.73,36.26,0.97
			c20.07,0.39,40.15,0.61,60.22,1.05c6.43,0.14,12.86,0.72,19.29,1.1C282.69,17.4,282.68,17.92,282.67,18.44z"/>
		<path class="st2" d="M299.66,16.91c5.99-0.02,11.98-0.04,17.97-0.07c-0.01,0.56-0.03,1.13-0.04,1.7
			c-5.98-0.03-11.97-0.05-17.95-0.08C299.64,17.95,299.65,17.43,299.66,16.91z"/>
		<path class="st3" d="M299.66,16.91c-0.01,0.52-0.02,1.04-0.02,1.55c-5.66-0.01-11.31-0.01-16.97-0.02
			c0.01-0.52,0.02-1.04,0.04-1.56C288.35,16.89,294.01,16.9,299.66,16.91z"/>
		<path class="st4" d="M317.58,18.54c0.01-0.57,0.03-1.13,0.04-1.7c5.4,0,10.79,0,16.19,0c0.02,0.56,0.04,1.13,0.06,1.69
			C328.45,18.54,323.02,18.54,317.58,18.54z"/>
	</g>
</g>
</svg>
