<?xml version="1.0" encoding="utf-8"?>
<!-- Generator: Adobe Illustrator 24.0.1, SVG Export Plug-In . SVG Version: 6.00 Build 0)  -->
<svg version="1.1" id="Calque_1" xmlns="http://www.w3.org/2000/svg" xmlns:xlink="http://www.w3.org/1999/xlink" x="0px" y="0px"
	 viewBox="0 0 348.86 34.73" style="enable-background:new 0 0 348.86 34.73;" xml:space="preserve">
<style type="text/css">
	.st0{fill:#6E4CCC;}
</style>
<g>
	<g>
		<path class="st0" d="M284.6,18.39c-3.16,0.09-6.32,0.23-9.48,0.27c-30.25,0.35-60.51,0.62-90.76,1.03
			c-12.43,0.17-24.87,0.57-37.29,0.99c-17.7,0.6-35.42,1.13-53.11,2.05c-12.83,0.67-25.63,1.98-38.46,2.84
			c-2.23,0.15-4.54-0.43-6.78-0.84c-10.78-1.98-21.55-4.01-32.31-6.05c-1.39-0.26-2.74-0.76-3.4-0.95
			c12.5-2.73,25.37-5.82,38.37-8.21c4.55-0.84,9.44-0.11,14.15,0.21c7.72,0.52,15.41,1.56,23.14,1.88
			c13.59,0.56,27.2,0.73,40.8,1.07c13.1,0.33,26.2,0.66,39.29,1c12.1,0.32,24.2,0.74,36.3,0.98c20.09,0.4,40.18,0.62,60.27,1.06
			c6.44,0.14,12.87,0.73,19.31,1.11C284.62,17.34,284.61,17.87,284.6,18.39z"/>
		<path class="st0" d="M301.61,16.85c6-0.02,11.99-0.04,17.99-0.07c-0.01,0.57-0.03,1.14-0.04,1.71
			c-5.99-0.03-11.98-0.05-17.97-0.08C301.59,17.89,301.6,17.37,301.61,16.85z"/>
		<path class="st0" d="M301.61,16.85c-0.01,0.52-0.02,1.04-0.02,1.56c-5.66-0.01-11.32-0.01-16.98-0.02
			c0.01-0.53,0.02-1.05,0.04-1.58C290.29,16.83,295.95,16.84,301.61,16.85z"/>
		<path class="st0" d="M319.55,18.49c0.01-0.57,0.03-1.14,0.04-1.71c5.4,0,10.8,0,16.2,0c0.02,0.57,0.04,1.14,0.06,1.71
			C330.43,18.49,324.99,18.49,319.55,18.49z"/>
	</g>
</g>
</svg>
