<svg id="Calque_1" data-name="Calque 1" xmlns="http://www.w3.org/2000/svg" viewBox="0 0 348.86 34.73"><defs><style>.cls-1{fill:#fef5fa;}.cls-2{fill:#a6689a;}.cls-3{fill:#d3afcc;}.cls-4{fill:#bd8db3;}.cls-5{fill:#e9d2e6;}</style></defs><title>deco-violette-menu2-gauche</title><path class="cls-1" d="M0,34.73V0H348.86V34.73Zm31.09-17,18-.07,17,0c6.44.38,12.87,1,19.31,1.11,20.09.44,40.18.66,60.27,1.06,12.1.24,24.2.66,36.3,1q19.65.53,39.29,1c13.6.34,27.21.51,40.8,1.07,7.72.32,15.42,1.36,23.14,1.88,4.71.32,9.6,1.05,14.15.21,13-2.39,25.87-5.49,38.37-8.21a31.46,31.46,0,0,0-3.4-.95q-16.14-3.07-32.31-6A28.16,28.16,0,0,0,295.19,9c-12.83.86-25.63,2.17-38.46,2.84-17.69.92-35.4,1.45-53.11,2-12.43.42-24.86.82-37.29,1-30.25.42-60.51.69-90.76,1-3.16,0-6.32.17-9.48.26l-17,0-18-.08H14.83l.06,1.71Z"/><path class="cls-2" d="M66.09,16.14c3.16-.09,6.32-.23,9.48-.27,30.25-.35,60.51-.62,90.76-1,12.43-.17,24.87-.57,37.29-1,17.7-.6,35.42-1.13,53.11-2,12.83-.67,25.63-2,38.46-2.84A28.16,28.16,0,0,1,302,9.8q16.17,3,32.31,6a31.46,31.46,0,0,1,3.4,1c-12.5,2.73-25.37,5.82-38.37,8.21-4.55.84-9.44.11-14.15-.21-7.72-.52-15.41-1.56-23.14-1.88-13.59-.56-27.2-.73-40.8-1.07l-39.29-1c-12.1-.32-24.2-.74-36.3-1-20.09-.4-40.18-.62-60.27-1.06-6.44-.14-12.87-.73-19.31-1.11C66.07,17.19,66.08,16.66,66.09,16.14Z"/><path class="cls-3" d="M49.08,17.68l-18,.07c0-.57,0-1.14,0-1.71l18,.08C49.1,16.64,49.09,17.16,49.08,17.68Z"/><path class="cls-4" d="M49.08,17.68c0-.52,0-1,0-1.56l17,0c0,.53,0,1.05,0,1.58Z"/><path class="cls-5" d="M31.14,16c0,.57,0,1.14,0,1.71H14.9L14.84,16Z"/></svg>