<?xml version="1.0" encoding="utf-8"?>
<!-- Generator: Adobe Illustrator 24.0.1, SVG Export Plug-In . SVG Version: 6.00 Build 0)  -->
<svg version="1.1" id="Calque_1" xmlns="http://www.w3.org/2000/svg" xmlns:xlink="http://www.w3.org/1999/xlink" x="0px" y="0px"
	 viewBox="0 0 572.6 141.73" style="enable-background:new 0 0 572.6 141.73;" xml:space="preserve">
<style type="text/css">
	.st0{fill:#71B85A;}
	.st1{fill:#9DC86B;}
	.st2{fill:#94C569;}
	.st3{fill:#B1D075;}
	.st4{fill:#61B04E;}
	.st5{fill:#78BB5B;}
	.st6{fill:#83BF63;}
	.st7{fill:#4E9D43;}
	.st8{fill:#ABCE78;}
	.st9{fill:#8DC269;}
	.st10{fill:#C0D780;}
	.st11{fill:#5CAB4B;}
	.st12{fill:#47983E;}
	.st13{fill:#52A246;}
	.st14{fill:#55A647;}
</style>
<g>
	<g>
		<path class="st0" d="M349.86,67.12c16.86,0.78,33.72,1.56,50.58,2.34c0,5.41,0,10.83-0.01,16.24c-16.9-0.87-33.8-1.74-50.7-2.6
			C349.77,77.77,349.82,72.44,349.86,67.12z"/>
		<path class="st1" d="M153.16,70.97c16.37-0.26,32.73-0.53,49.1-0.79c0,5.08,0,10.16,0,15.24c-16.38,0-32.77,0.01-49.15,0.01
			C153.13,80.61,153.15,75.79,153.16,70.97z"/>
		<path class="st2" d="M202.26,85.42c0-5.08,0-10.16,0-15.24c14.12-1.06,28.24-2.13,42.36-3.19c0,5.24,0,10.49-0.01,15.73
			C230.5,83.62,216.38,84.52,202.26,85.42z"/>
		<path class="st3" d="M65.7,74.13c17.28-1.35,34.55-2.71,51.83-4.06c0,4.59,0,9.19,0,13.78c-17.3,0.27-34.59,0.53-51.89,0.8
			C65.65,81.14,65.68,77.63,65.7,74.13z"/>
		<path class="st4" d="M400.43,85.7c0-5.41,0-10.83,0.01-16.24c12.27-0.48,24.55-0.97,36.82-1.45c0.02,5.43,0.04,10.86,0.05,16.29
			C425.02,84.77,412.72,85.23,400.43,85.7z"/>
		<path class="st5" d="M349.86,67.12c-0.04,5.33-0.09,10.65-0.13,15.98c-12.72-0.68-25.43-1.35-38.15-2.03
			c0.01-5.16,0.02-10.33,0.03-15.49C324.36,66.09,337.11,66.6,349.86,67.12z"/>
		<path class="st6" d="M311.61,65.58c-0.01,5.16-0.02,10.33-0.03,15.49c-12.3,0.01-24.6,0.02-36.9,0.03
			c0.02-4.98,0.05-9.97,0.07-14.95C287.04,65.96,299.33,65.77,311.61,65.58z"/>
		<path class="st7" d="M535.38,84.23c-8.15,0.55-16.3,1.1-24.45,1.66c-6.39,1.3-9.06-1.71-8.09-9.38c0.33-2.57,0.07-5.25,0.07-7.88
			c9.56-0.58,19.12-1.17,28.69-1.75c0,4.2-0.37,8.46,0.16,12.56C532.01,81.21,534.12,82.64,535.38,84.23z"/>
		<path class="st8" d="M117.52,83.85c0-4.59,0-9.19,0-13.78c11.88,0.3,23.76,0.6,35.64,0.9c-0.02,4.82-0.04,9.65-0.05,14.47
			C141.25,84.91,129.39,84.38,117.52,83.85z"/>
		<path class="st9" d="M274.75,66.15c-0.02,4.98-0.05,9.97-0.07,14.95c-10.02,0.54-20.04,1.08-30.06,1.62c0-5.24,0-10.49,0.01-15.73
			C254.67,66.71,264.71,66.43,274.75,66.15z"/>
		<path class="st10" d="M65.7,74.13c-0.02,3.51-0.04,7.01-0.06,10.52c-13.84-0.69-27.68-1.38-41.52-2.07
			c-0.08-1.04-0.17-2.08-0.25-3.11c2.32-0.54,4.62-1.3,6.96-1.54c2.63-0.27,5.3-0.06,7.96-1.1c-5.02-0.45-10.04-0.9-15.06-1.35
			c0.03-0.45,0.06-0.9,0.1-1.34C37.78,74.13,51.74,74.13,65.7,74.13z"/>
		<path class="st11" d="M437.31,84.3c-0.02-5.43-0.04-10.86-0.05-16.29c10.06-0.23,20.11-0.46,30.17-0.68c0,0,0.07,0.7,0.07,0.7
			c-4.97-0.2-7.85,1.32-5.74,8.27c0.71,2.34,0.14,5.21,0.16,7.84C453.71,84.19,445.51,84.24,437.31,84.3z"/>
		<path class="st12" d="M535.38,84.23c-1.26-1.59-3.37-3.02-3.61-4.79c-0.54-4.1-0.17-8.36-0.16-12.56
			c1.38,0.03,2.76,0.05,4.14,0.08c4.07-0.01,8.14-0.02,12.21-0.03c5.95,2.41,9.82,12.25,6.44,17.44c-1.04,1.59-3.94,2.23-5.92,2.08
			C544.09,86.12,539.75,85.01,535.38,84.23z"/>
		<path class="st13" d="M502.92,68.63c-0.01,2.63,0.25,5.31-0.07,7.88c-0.98,7.67,1.7,10.67,8.09,9.38
			c-12.81-0.45-25.61-0.91-38.42-1.36c11.25-0.43,11.25-0.43,11.26-13.87c0-0.79,0-1.59,0-2.38
			C490.16,68.39,496.54,68.51,502.92,68.63z"/>
		<path class="st14" d="M483.77,68.27c0,0.79,0,1.59,0,2.38c-0.01,13.44-0.01,13.44-11.26,13.87c-3.53-0.13-7.07-0.26-10.6-0.39
			c-0.02-2.63,0.55-5.5-0.16-7.84c-2.11-6.95,0.77-8.47,5.74-8.27c2.74,0.05,5.48,0.09,8.22,0.13
			C478.4,68.2,481.09,68.23,483.77,68.27z"/>
		<path class="st7" d="M547.96,66.92c-4.07,0.01-8.14,0.02-12.21,0.03C539.82,66.94,543.89,66.93,547.96,66.92z"/>
		<path class="st13" d="M475.71,68.17c-2.74-0.04-5.48-0.09-8.22-0.13c0,0-0.07-0.7-0.07-0.7
			C470.19,67.61,472.95,67.89,475.71,68.17z"/>
	</g>
</g>
</svg>
