<?xml version="1.0" encoding="utf-8"?>
<!-- Generator: Adobe Illustrator 24.0.1, SVG Export Plug-In . SVG Version: 6.00 Build 0)  -->
<svg version="1.1" id="Calque_1" xmlns="http://www.w3.org/2000/svg" xmlns:xlink="http://www.w3.org/1999/xlink" x="0px" y="0px"
	 viewBox="0 0 348.86 34.73" style="enable-background:new 0 0 348.86 34.73;" xml:space="preserve">
<style type="text/css">
	.st0{fill:#6E4CCC;}
</style>
<g>
	<g>
		<path class="st0" d="M64.26,16.34c3.16-0.09,6.32-0.23,9.48-0.27c30.25-0.35,60.51-0.62,90.76-1.03
			c12.43-0.17,24.87-0.57,37.29-0.99c17.7-0.6,35.42-1.13,53.11-2.05c12.83-0.67,25.63-1.98,38.46-2.84
			c2.23-0.15,4.54,0.43,6.78,0.84c10.78,1.98,21.55,4.01,32.31,6.05c1.39,0.26,2.74,0.76,3.4,0.95c-12.5,2.73-25.37,5.82-38.37,8.21
			c-4.55,0.84-9.44,0.11-14.15-0.21c-7.72-0.52-15.41-1.56-23.14-1.88c-13.59-0.56-27.2-0.73-40.8-1.07
			c-13.1-0.33-26.2-0.66-39.29-1c-12.1-0.32-24.2-0.74-36.3-0.98c-20.09-0.4-40.18-0.62-60.27-1.06
			c-6.44-0.14-12.87-0.73-19.31-1.11C64.24,17.39,64.25,16.86,64.26,16.34z"/>
		<path class="st0" d="M47.25,17.88c-6,0.02-11.99,0.04-17.99,0.07c0.01-0.57,0.03-1.14,0.04-1.71c5.99,0.03,11.98,0.05,17.97,0.08
			C47.27,16.84,47.26,17.36,47.25,17.88z"/>
		<path class="st0" d="M47.25,17.88c0.01-0.52,0.02-1.04,0.02-1.56c5.66,0.01,11.32,0.01,16.98,0.02c-0.01,0.53-0.02,1.05-0.04,1.58
			C58.57,17.9,52.91,17.89,47.25,17.88z"/>
		<path class="st0" d="M29.31,16.24c-0.01,0.57-0.03,1.14-0.04,1.71c-5.4,0-10.8,0-16.2,0c-0.02-0.57-0.04-1.14-0.06-1.71
			C18.43,16.24,23.87,16.24,29.31,16.24z"/>
	</g>
</g>
</svg>
