<?xml version="1.0" encoding="utf-8"?>
<!-- Generator: Adobe Illustrator 24.0.1, SVG Export Plug-In . SVG Version: 6.00 Build 0)  -->
<svg version="1.1" id="Calque_1" xmlns="http://www.w3.org/2000/svg" xmlns:xlink="http://www.w3.org/1999/xlink" x="0px" y="0px"
	 viewBox="0 0 260.79 28.35" style="enable-background:new 0 0 260.79 28.35;" xml:space="preserve">
<g>
	<g>
		<path d="M202.43,21.17c-13.78,0-27.56,0.07-41.34-0.02c-25.62-0.16-51.24-0.31-76.86-0.65c-15.99-0.22-31.97-0.71-47.94-1.26
			c-6.17-0.21-12.32-0.88-18.45-1.51c-0.96-0.1-1.78-1.07-2.66-1.64c0.93-0.56,1.82-1.54,2.81-1.62c3.6-0.29,7.24-0.39,10.86-0.37
			c10.53,0.07,21.06,0.3,31.59,0.35c27.18,0.13,54.37,0.09,81.55,0.31c29.39,0.24,58.78,0.67,88.16,1.07
			c2.84,0.04,5.79,0.15,8.47,0.81c1.37,0.34,2.25,1.95,3.36,2.99c-1.47,0.42-2.95,1.19-4.43,1.21c-11.71,0.1-23.42,0.06-35.12,0.06
			C202.43,20.99,202.43,21.08,202.43,21.17z"/>
	</g>
</g>
</svg>
