<?xml version="1.0" encoding="utf-8"?>
<!-- Generator: Adobe Illustrator 24.0.1, SVG Export Plug-In . SVG Version: 6.00 Build 0)  -->
<svg version="1.1" id="Calque_1" xmlns="http://www.w3.org/2000/svg" xmlns:xlink="http://www.w3.org/1999/xlink" x="0px" y="0px"
	 viewBox="0 0 348.86 34.73" style="enable-background:new 0 0 348.86 34.73;" xml:space="preserve">
<style type="text/css">
	.st0{fill:#FEF5FA;}
	.st1{fill:#C67412;}
</style>
<g>
	<g>
		<path class="st0" d="M348.86,0c0,11.59,0,23.09,0,34.73c-116.24,0-232.48,0-348.86,0C0,23.29,0,11.72,0,0
			C116.1,0,232.35,0,348.86,0z M317.77,16.98c-6,0.02-11.99,0.04-17.99,0.07c-5.66-0.01-11.32-0.02-16.97-0.03
			c-6.44-0.38-12.87-0.97-19.31-1.11c-20.09-0.44-40.18-0.66-60.27-1.06c-12.1-0.24-24.2-0.66-36.3-0.98
			c-13.1-0.35-26.2-0.68-39.29-1c-13.6-0.34-27.21-0.51-40.8-1.07c-7.72-0.32-15.42-1.36-23.14-1.88c-4.71-0.32-9.6-1.05-14.15-0.21
			c-13,2.39-25.87,5.49-38.37,8.21c0.66,0.19,2.01,0.69,3.4,0.95c10.76,2.05,21.53,4.07,32.31,6.05c2.24,0.41,4.55,0.99,6.78,0.84
			c12.83-0.86,25.63-2.17,38.46-2.84c17.69-0.92,35.4-1.45,53.11-2.05c12.43-0.42,24.86-0.82,37.29-0.99
			c30.25-0.42,60.51-0.69,90.76-1.03c3.16-0.04,6.32-0.17,9.48-0.26c5.66,0.01,11.32,0.01,16.98,0.02
			c5.99,0.03,11.98,0.05,17.97,0.08c5.44,0,10.87,0,16.31,0c-0.02-0.57-0.04-1.14-0.06-1.71C328.57,16.98,323.17,16.98,317.77,16.98
			z"/>
		<path class="st1" d="M282.77,18.59c-3.16,0.09-6.32,0.23-9.48,0.27c-30.25,0.35-60.51,0.62-90.76,1.03
			c-12.43,0.17-24.87,0.57-37.29,0.99c-17.7,0.6-35.42,1.13-53.11,2.05C79.3,23.6,66.5,24.91,53.67,25.77
			c-2.23,0.15-4.54-0.43-6.78-0.84c-10.78-1.98-21.55-4.01-32.31-6.05c-1.39-0.26-2.74-0.76-3.4-0.95
			c12.5-2.73,25.37-5.82,38.37-8.21c4.55-0.84,9.44-0.11,14.15,0.21c7.72,0.52,15.41,1.56,23.14,1.88
			c13.59,0.56,27.2,0.73,40.8,1.07c13.1,0.33,26.2,0.66,39.29,1c12.1,0.32,24.2,0.74,36.3,0.98c20.09,0.4,40.18,0.62,60.27,1.06
			c6.44,0.14,12.87,0.73,19.31,1.11C282.79,17.54,282.78,18.07,282.77,18.59z"/>
		<path class="st1" d="M299.78,17.05c6-0.02,11.99-0.04,17.99-0.07c-0.01,0.57-0.03,1.14-0.04,1.71
			c-5.99-0.03-11.98-0.05-17.97-0.08C299.76,18.09,299.77,17.57,299.78,17.05z"/>
		<path class="st1" d="M299.78,17.05c-0.01,0.52-0.02,1.04-0.02,1.56c-5.66-0.01-11.32-0.01-16.98-0.02
			c0.01-0.53,0.02-1.05,0.04-1.58C288.46,17.03,294.12,17.04,299.78,17.05z"/>
		<path class="st1" d="M317.72,18.69c0.01-0.57,0.03-1.14,0.04-1.71c5.4,0,10.8,0,16.2,0c0.02,0.57,0.04,1.14,0.06,1.71
			C328.6,18.69,323.16,18.69,317.72,18.69z"/>
	</g>
</g>
</svg>
