<?xml version="1.0" encoding="utf-8"?>
<!-- Generator: Adobe Illustrator 24.0.1, SVG Export Plug-In . SVG Version: 6.00 Build 0)  -->
<svg version="1.1" id="Calque_1" xmlns="http://www.w3.org/2000/svg" xmlns:xlink="http://www.w3.org/1999/xlink" x="0px" y="0px"
	 viewBox="0 0 348.86 34.73" style="enable-background:new 0 0 348.86 34.73;" xml:space="preserve">
<style type="text/css">
	.st0{fill:#FEF5FA;}
	.st1{fill:#C67412;}
</style>
<g>
	<g>
		<path class="st0" d="M0,34.73C0,23.14,0,11.64,0,0c116.24,0,232.48,0,348.86,0c0,11.44,0,23.01,0,34.73
			C232.76,34.73,116.51,34.73,0,34.73z M31.09,17.75c6-0.02,11.99-0.04,17.99-0.07c5.66,0.01,11.32,0.02,16.97,0.03
			c6.44,0.38,12.87,0.97,19.31,1.11c20.09,0.44,40.18,0.66,60.27,1.06c12.1,0.24,24.2,0.66,36.3,0.98c13.1,0.35,26.2,0.68,39.29,1
			c13.6,0.34,27.21,0.51,40.8,1.07c7.72,0.32,15.42,1.36,23.14,1.88c4.71,0.32,9.6,1.05,14.15,0.21c13-2.39,25.87-5.49,38.37-8.21
			c-0.66-0.19-2.01-0.69-3.4-0.95c-10.76-2.05-21.53-4.07-32.31-6.05c-2.24-0.41-4.55-0.99-6.78-0.84
			c-12.83,0.86-25.63,2.17-38.46,2.84c-17.69,0.92-35.4,1.45-53.11,2.05c-12.43,0.42-24.86,0.82-37.29,0.99
			c-30.25,0.42-60.51,0.69-90.76,1.03c-3.16,0.04-6.32,0.17-9.48,0.26c-5.66-0.01-11.32-0.01-16.98-0.02
			c-5.99-0.03-11.98-0.05-17.97-0.08c-5.44,0-10.87,0-16.31,0c0.02,0.57,0.04,1.14,0.06,1.71C20.29,17.75,25.69,17.75,31.09,17.75z"
			/>
		<path class="st1" d="M66.09,16.14c3.16-0.09,6.32-0.23,9.48-0.27c30.25-0.35,60.51-0.62,90.76-1.03
			c12.43-0.17,24.87-0.57,37.29-0.99c17.7-0.6,35.42-1.13,53.11-2.05c12.83-0.67,25.63-1.98,38.46-2.84
			c2.23-0.15,4.54,0.43,6.78,0.84c10.78,1.98,21.55,4.01,32.31,6.05c1.39,0.26,2.74,0.76,3.4,0.95c-12.5,2.73-25.37,5.82-38.37,8.21
			c-4.55,0.84-9.44,0.11-14.15-0.21c-7.72-0.52-15.41-1.56-23.14-1.88c-13.59-0.56-27.2-0.73-40.8-1.07
			c-13.1-0.33-26.2-0.66-39.29-1c-12.1-0.32-24.2-0.74-36.3-0.98c-20.09-0.4-40.18-0.62-60.27-1.06
			c-6.44-0.14-12.87-0.73-19.31-1.11C66.07,17.19,66.08,16.66,66.09,16.14z"/>
		<path class="st1" d="M49.08,17.68c-6,0.02-11.99,0.04-17.99,0.07c0.01-0.57,0.03-1.14,0.04-1.71c5.99,0.03,11.98,0.05,17.97,0.08
			C49.1,16.64,49.09,17.16,49.08,17.68z"/>
		<path class="st1" d="M49.08,17.68c0.01-0.52,0.02-1.04,0.02-1.56c5.66,0.01,11.32,0.01,16.98,0.02c-0.01,0.53-0.02,1.05-0.04,1.58
			C60.4,17.7,54.74,17.69,49.08,17.68z"/>
		<path class="st1" d="M31.14,16.04c-0.01,0.57-0.03,1.14-0.04,1.71c-5.4,0-10.8,0-16.2,0c-0.02-0.57-0.04-1.14-0.06-1.71
			C20.26,16.04,25.7,16.04,31.14,16.04z"/>
	</g>
</g>
</svg>
