<?xml version="1.0" encoding="utf-8"?>
<!-- Generator: Adobe Illustrator 24.0.1, SVG Export Plug-In . SVG Version: 6.00 Build 0)  -->
<svg version="1.1" id="Calque_1" xmlns="http://www.w3.org/2000/svg" xmlns:xlink="http://www.w3.org/1999/xlink" x="0px" y="0px"
	 viewBox="0 0 357.17 56.69" style="enable-background:new 0 0 357.17 56.69;" xml:space="preserve">
<style type="text/css">
	.st0{fill:#EDEFEF;}
	.st1{fill:#4995D1;}
	.st2{fill:#8CC5ED;}
	.st3{fill:#64AEE1;}
	.st4{fill:#4A95D1;}
</style>
<g>
	<g>
		<path class="st0" d="M356.58,57.85c0-19,0-38,0-57c-119.33,0-238.67,0-358,0c0,19,0,38,0,57
			C117.92,57.85,237.25,57.85,356.58,57.85z M341.58,24.98c0.31-0.1,0.64-0.16,0.96-0.2l-0.04,0.01c0.65-0.33,1.31-0.66,1.96-0.99
			c0.32,0.01,0.63,0.03,0.95,0.04c-0.25,0.35-0.49,0.69-0.74,1.04c-0.34,0.33-0.67,0.66-1.01,1c-0.34,0.34-0.69,0.68-1.03,1.02
			c-0.31,0.33-0.63,0.66-0.94,0.98c-3.8,2.3-7.35,5.6-11.48,6.65c-5.29,1.34-11.05,0.87-16.6,1.18c-1.33,0.05-2.66,0.13-3.99,0.13
			c-99.97,0.01-199.94,0.01-299.91,0c-1.33,0-2.66-0.08-3.97-0.23c-0.07-0.01-0.02-1.08-0.02-1.66c1-1.69,2.01-3.38,3.01-5.07
			c1.68-0.35,3.37-1,5.05-1c99.57-0.05,199.14-0.05,298.71,0c1.73,0,3.47,0.58,5.2,0.89c7.26-0.99,14.53-1.98,21.79-2.97
			C340.18,25.53,340.88,25.26,341.58,24.98z"/>
		<path class="st1" d="M8.73,28.89c-1,1.69-2.01,3.38-3.01,5.07c2.07,0.3,4.14,0.85,6.22,0.86c98.47,0.04,196.95,0.03,295.42,0.07
			c2.09,0,4.18,0.54,6.26,0.83c5.55-0.31,11.31,0.16,16.6-1.18c4.12-1.05,7.67-4.35,11.48-6.65c-0.37-0.35-0.74-0.69-1.11-1.04
			c0-0.33,0-0.67,0-1c-0.37-0.01-0.74-0.03-1.11-0.04c-7.26,0.99-14.53,1.98-21.79,2.97c-2.5,0.02-5,0.07-7.5,0.07
			C209.7,28.86,109.22,28.87,8.73,28.89z"/>
		<path class="st2" d="M313.62,35.71c-2.09-0.29-4.18-0.83-6.26-0.83c-98.47-0.04-196.95-0.03-295.42-0.07
			c-2.07,0-4.14-0.56-6.22-0.86c0,0.58-0.05,1.65,0.02,1.66c1.32,0.15,2.65,0.23,3.97,0.23c99.97,0.01,199.94,0.01,299.91,0
			C310.96,35.84,312.29,35.76,313.62,35.71z"/>
		<path class="st3" d="M8.73,28.89c100.49-0.01,200.97-0.03,301.46-0.04c2.5,0,5-0.05,7.5-0.07c-1.73-0.31-3.46-0.89-5.2-0.89
			c-99.57-0.04-199.14-0.04-298.71,0C12.1,27.89,10.42,28.54,8.73,28.89z"/>
		<path class="st4" d="M344.69,24.89c0.25-0.35,0.49-0.69,0.74-1.04c-0.32-0.01-0.63-0.02-0.95-0.04c-0.65,0.33-1.31,0.66-1.96,0.99
			C343.24,24.83,343.96,24.86,344.69,24.89z"/>
		<path class="st4" d="M340.58,26.85c0.37,0.35,0.74,0.69,1.11,1.04c0.31-0.33,0.63-0.66,0.94-0.98c0,0-0.08-0.08-0.08-0.08
			C341.9,26.83,341.24,26.84,340.58,26.85z"/>
		<path class="st4" d="M344.69,24.89c-0.72-0.03-1.45-0.06-2.17-0.09c0,0,0.03-0.01,0.04-0.01c0.01,0.35,0.02,0.7,0.04,1.06
			c0.36,0.01,0.73,0.02,1.09,0.04C344.01,25.55,344.35,25.22,344.69,24.89z"/>
		<path class="st4" d="M339.48,25.81c0.37,0.01,0.74,0.03,1.11,0.04c0.33,0,0.67,0,1,0c0-0.29,0-0.57,0-0.86
			C340.88,25.26,340.18,25.53,339.48,25.81z"/>
		<path class="st4" d="M344.47,23.8c0.32,0.02,0.63,0.03,0.95,0.04C345.11,23.83,344.79,23.82,344.47,23.8z"/>
		<path class="st4" d="M341.58,24.98c0,0.29,0,0.57,0,0.86c0.33,0,0.67,0,1,0c-0.01-0.35-0.02-0.7-0.04-1.06
			C342.22,24.82,341.9,24.88,341.58,24.98z"/>
		<path class="st4" d="M343.67,25.88c-0.36-0.01-0.73-0.02-1.09-0.04c0.01,0.33,0,0.65-0.03,0.97c0,0,0.08,0.08,0.08,0.08
			C342.99,26.56,343.33,26.22,343.67,25.88z"/>
		<path class="st4" d="M342.56,26.82c0.02-0.32,0.03-0.65,0.03-0.97c-0.33,0-0.67,0-1,0s-0.67,0-1,0c0,0.33,0,0.67,0,1
			C341.24,26.84,341.9,26.83,342.56,26.82z"/>
	</g>
</g>
</svg>
