<?xml version="1.0" encoding="utf-8"?>
<!-- Generator: Adobe Illustrator 24.0.1, SVG Export Plug-In . SVG Version: 6.00 Build 0)  -->
<svg version="1.1" id="Calque_1" xmlns="http://www.w3.org/2000/svg" xmlns:xlink="http://www.w3.org/1999/xlink" x="0px" y="0px"
	 viewBox="0 0 357.17 45.35" style="enable-background:new 0 0 357.17 45.35;" xml:space="preserve">
<style type="text/css">
	.st0{fill:#EDEFEF;}
	.st1{fill:#2C4999;}
	.st2{fill:#B4BFE2;}
</style>
<g>
	<g>
		<path class="st0" d="M357.17,45.35c0-15.12,0-30.24,0-45.35C238.11,0,119.06,0,0,0c0,15.12,0,30.24,0,45.35
			C119.06,45.35,238.11,45.35,357.17,45.35z M347.32,18.33c-0.7,0.68-1.39,1.36-2.09,2.04c-2.12,4.1-5.64,6.15-10.27,6.66
			c-1.26,0.14-2.49,0.52-3.74,0.79c-1.99,0.05-3.98,0.15-5.97,0.15c-103.11,0.01-206.23,0.01-309.34,0.01c-2.1,0-4.2,0-7.03,0
			c1.56-2.66,2.81-4.78,4.06-6.91c1.75-0.27,3.5-0.78,5.26-0.78c101.95-0.04,203.89-0.04,305.84,0c1.75,0,3.5,0.51,5.26,0.78
			l-0.1,0.25c4.97-1.01,9.93-2.03,14.9-3.04c0.37-0.26,0.74-0.51,1.11-0.77c0.86-0.22,1.71-0.45,2.57-0.67
			C347.61,17.35,347.47,17.84,347.32,18.33z"/>
		<path class="st1" d="M12.94,21.07c-1.25,2.13-2.5,4.25-4.06,6.91c2.83,0,4.93,0,7.03,0c103.11,0,206.23,0,309.34-0.01
			c1.99,0,3.98-0.1,5.97-0.15c-0.68-2.16-1.36-4.33-2.04-6.49c0,0,0.1-0.25,0.1-0.25c-1.49,0.05-2.98,0.14-4.48,0.14
			c-102.47,0.01-204.93,0.01-307.4,0C15.93,21.22,14.43,21.13,12.94,21.07z"/>
		<path class="st2" d="M12.94,21.07c1.49,0.05,2.98,0.15,4.48,0.15c102.47,0.01,204.93,0.01,307.4,0c1.49,0,2.98-0.09,4.48-0.14
			c-1.75-0.27-3.5-0.78-5.26-0.78c-101.94-0.04-203.89-0.04-305.84,0C16.45,20.3,14.69,20.8,12.94,21.07z"/>
		<path class="st1" d="M329.19,21.33c0.68,2.16,1.36,4.33,2.04,6.49c1.25-0.27,2.48-0.65,3.74-0.79c4.63-0.51,8.15-2.57,10.27-6.66
			c-0.01-0.68-0.03-1.36-0.04-2.04c-0.37-0.01-0.74-0.03-1.11-0.04C339.12,19.31,334.15,20.32,329.19,21.33z"/>
		<path class="st1" d="M347.32,18.33c0.15-0.49,0.29-0.99,0.44-1.48c-0.86,0.22-1.71,0.45-2.57,0.67c0,0.27,0,0.54,0,0.81
			C345.9,18.33,346.61,18.33,347.32,18.33z"/>
		<path class="st1" d="M347.32,18.33c-0.71,0-1.42,0-2.13,0c0.01,0.68,0.03,1.36,0.04,2.04C345.93,19.69,346.63,19.01,347.32,18.33z
			"/>
		<path class="st1" d="M345.19,18.33c0-0.27,0-0.54,0-0.81c-0.37,0.26-0.74,0.51-1.11,0.77C344.46,18.31,344.82,18.32,345.19,18.33z
			"/>
	</g>
</g>
</svg>
