<?xml version="1.0" encoding="utf-8"?>
<!-- Generator: Adobe Illustrator 24.0.1, SVG Export Plug-In . SVG Version: 6.00 Build 0)  -->
<svg version="1.1" id="Calque_1" xmlns="http://www.w3.org/2000/svg" xmlns:xlink="http://www.w3.org/1999/xlink" x="0px" y="0px"
	 viewBox="0 0 357.17 56.69" style="enable-background:new 0 0 357.17 56.69;" xml:space="preserve">
<style type="text/css">
	.st0{fill:#EDEFEF;}
	.st1{fill:#3568B1;}
</style>
<g>
	<g>
		<path class="st0" d="M0.58,57.6c0-19.08,0-37.9,0-56.74c119.28,0,238.57,0,357.93,0c0,18.93,0,37.88,0,56.74
			C239.25,57.6,119.92,57.6,0.58,57.6z M13.65,21.76c-0.5-0.24-0.99-0.48-1.49-0.72c0.22,0.47,0.44,0.94,0.66,1.41
			c0.64,1.13,1.29,2.26,1.93,3.39c4.22,6.76,11.36,6.87,17.87,6.88c104.31,0.17,208.61,0.12,312.92,0.12c1.6,0,3.2,0,5.06,0
			c-0.57-4.83-2.06-7.11-7.12-7.11c-103.14,0.14-206.28,0.13-309.42,0.03c-4.7,0-9.4-1.16-14.1-1.78
			C17.85,23.25,15.75,22.51,13.65,21.76z"/>
		<path class="st1" d="M19.95,23.99c4.7,0.62,9.4,1.77,14.1,1.78c103.14,0.1,206.28,0.11,309.42-0.03c5.07-0.01,6.55,2.27,7.12,7.11
			c-1.86,0-3.46,0-5.06,0c-104.31,0-208.61,0.05-312.92-0.12c-6.51-0.01-13.65-0.12-17.87-6.88C16.48,25.23,18.22,24.61,19.95,23.99
			z"/>
		<path class="st1" d="M19.95,23.99c-1.73,0.62-3.47,1.24-5.2,1.85c-0.64-1.13-1.29-2.26-1.93-3.39c0.28-0.23,0.56-0.46,0.83-0.69
			C15.75,22.51,17.85,23.25,19.95,23.99z"/>
		<path class="st1" d="M12.82,22.45c-0.22-0.47-0.44-0.94-0.66-1.41c0.5,0.24,0.99,0.48,1.49,0.72
			C13.38,21.99,13.1,22.22,12.82,22.45z"/>
	</g>
</g>
</svg>
