<?xml version="1.0" encoding="utf-8"?>
<!-- Generator: Adobe Illustrator 24.0.1, SVG Export Plug-In . SVG Version: 6.00 Build 0)  -->
<svg version="1.1" id="Calque_1" xmlns="http://www.w3.org/2000/svg" xmlns:xlink="http://www.w3.org/1999/xlink" x="0px" y="0px"
	 viewBox="0 0 357.17 56.69" style="enable-background:new 0 0 357.17 56.69;" xml:space="preserve">
<style type="text/css">
	.st0{fill:#EDEFEF;}
	.st1{fill:#3568B1;}
</style>
<g>
	<g>
		<path class="st0" d="M356.58,57.6c0-19.08,0-37.9,0-56.74c-119.28,0-238.57,0-357.93,0c0,18.93,0,37.88,0,56.74
			C117.92,57.6,237.25,57.6,356.58,57.6z M343.51,21.76c0.5-0.24,0.99-0.48,1.49-0.72c-0.22,0.47-0.44,0.94-0.66,1.41
			c-0.64,1.13-1.29,2.26-1.93,3.39c-4.22,6.76-11.36,6.87-17.87,6.88c-104.31,0.17-208.61,0.12-312.92,0.12c-1.6,0-3.2,0-5.06,0
			c0.57-4.83,2.06-7.11,7.12-7.11c103.14,0.14,206.28,0.13,309.42,0.03c4.7,0,9.4-1.16,14.1-1.78
			C339.31,23.25,341.41,22.51,343.51,21.76z"/>
		<path class="st1" d="M337.22,23.99c-4.7,0.62-9.4,1.77-14.1,1.78c-103.14,0.1-206.28,0.11-309.42-0.03
			c-5.07-0.01-6.55,2.27-7.12,7.11c1.86,0,3.46,0,5.06,0c104.31,0,208.61,0.05,312.92-0.12c6.51-0.01,13.65-0.12,17.87-6.88
			C340.68,25.23,338.95,24.61,337.22,23.99z"/>
		<path class="st1" d="M337.22,23.99c1.73,0.62,3.47,1.24,5.2,1.85c0.64-1.13,1.29-2.26,1.93-3.39c-0.28-0.23-0.56-0.46-0.83-0.69
			C341.41,22.51,339.31,23.25,337.22,23.99z"/>
		<path class="st1" d="M344.35,22.45c0.22-0.47,0.44-0.94,0.66-1.41c-0.5,0.24-0.99,0.48-1.49,0.72
			C343.79,21.99,344.07,22.22,344.35,22.45z"/>
	</g>
</g>
</svg>
