<?xml version="1.0" encoding="utf-8"?>
<!-- Generator: Adobe Illustrator 24.0.1, SVG Export Plug-In . SVG Version: 6.00 Build 0)  -->
<svg version="1.1" id="Calque_1" xmlns="http://www.w3.org/2000/svg" xmlns:xlink="http://www.w3.org/1999/xlink" x="0px" y="0px"
	 viewBox="0 0 357.17 45.35" style="enable-background:new 0 0 357.17 45.35;" xml:space="preserve">
<style type="text/css">
	.st0{fill:#EDEFEF;}
	.st1{fill:#2C4999;}
	.st2{fill:#B4BFE2;}
</style>
<g>
	<g>
		<path class="st0" d="M0,45.35C0,30.24,0,15.12,0,0c119.06,0,238.11,0,357.17,0c0,15.12,0,30.24,0,45.35
			C238.11,45.35,119.06,45.35,0,45.35z M9.84,18.33c0.7,0.68,1.39,1.36,2.09,2.04c2.12,4.1,5.64,6.15,10.27,6.66
			c1.26,0.14,2.49,0.52,3.74,0.79c1.99,0.05,3.98,0.15,5.97,0.15c103.11,0.01,206.23,0.01,309.34,0.01c2.1,0,4.2,0,7.03,0
			c-1.56-2.66-2.81-4.78-4.06-6.91c-1.75-0.27-3.5-0.78-5.26-0.78c-101.95-0.04-203.89-0.04-305.84,0c-1.75,0-3.5,0.51-5.26,0.78
			l0.1,0.25c-4.97-1.01-9.93-2.03-14.9-3.04c-0.37-0.26-0.74-0.51-1.11-0.77c-0.86-0.22-1.71-0.45-2.57-0.67
			C9.55,17.35,9.7,17.84,9.84,18.33z"/>
		<path class="st1" d="M344.22,21.07c1.25,2.13,2.5,4.25,4.06,6.91c-2.83,0-4.93,0-7.03,0c-103.11,0-206.23,0-309.34-0.01
			c-1.99,0-3.98-0.1-5.97-0.15c0.68-2.16,1.36-4.33,2.04-6.49c0,0-0.1-0.25-0.1-0.25c1.49,0.05,2.98,0.14,4.48,0.14
			c102.47,0.01,204.93,0.01,307.4,0C341.24,21.22,342.73,21.13,344.22,21.07z"/>
		<path class="st2" d="M344.22,21.07c-1.49,0.05-2.98,0.15-4.48,0.15c-102.47,0.01-204.93,0.01-307.4,0c-1.49,0-2.98-0.09-4.48-0.14
			c1.75-0.27,3.5-0.78,5.26-0.78c101.95-0.04,203.89-0.04,305.84,0C340.72,20.3,342.47,20.8,344.22,21.07z"/>
		<path class="st1" d="M27.98,21.33c-0.68,2.16-1.36,4.33-2.04,6.49c-1.25-0.27-2.48-0.65-3.74-0.79
			c-4.63-0.51-8.15-2.57-10.27-6.66c0.01-0.68,0.03-1.36,0.04-2.04c0.37-0.01,0.74-0.03,1.11-0.04
			C18.05,19.31,23.01,20.32,27.98,21.33z"/>
		<path class="st1" d="M9.84,18.33c-0.15-0.49-0.29-0.99-0.44-1.48c0.86,0.22,1.71,0.45,2.57,0.67c0,0.27,0,0.54,0,0.81
			C11.26,18.33,10.55,18.33,9.84,18.33z"/>
		<path class="st1" d="M9.84,18.33c0.71,0,1.42,0,2.13,0c-0.01,0.68-0.03,1.36-0.04,2.04C11.23,19.69,10.54,19.01,9.84,18.33z"/>
		<path class="st1" d="M11.97,18.33c0-0.27,0-0.54,0-0.81c0.37,0.26,0.74,0.51,1.11,0.77C12.71,18.31,12.34,18.32,11.97,18.33z"/>
	</g>
</g>
</svg>
