<?xml version="1.0" encoding="utf-8"?>
<!-- Generator: Adobe Illustrator 24.0.1, SVG Export Plug-In . SVG Version: 6.00 Build 0)  -->
<svg version="1.1" id="Calque_1" xmlns="http://www.w3.org/2000/svg" xmlns:xlink="http://www.w3.org/1999/xlink" x="0px" y="0px"
	 viewBox="0 0 357.17 56.69" style="enable-background:new 0 0 357.17 56.69;" xml:space="preserve">
<style type="text/css">
	.st0{fill:#EDEFEF;}
	.st1{fill:#4995D1;}
	.st2{fill:#8CC5ED;}
	.st3{fill:#64AEE1;}
	.st4{fill:#4A95D1;}
</style>
<g>
	<g>
		<path class="st0" d="M0.58,57.85c0-19,0-38,0-57c119.33,0,238.67,0,358,0c0,19,0,38,0,57C239.25,57.85,119.92,57.85,0.58,57.85z
			 M15.58,24.98c-0.31-0.1-0.64-0.16-0.96-0.2l0.04,0.01c-0.65-0.33-1.31-0.66-1.96-0.99c-0.32,0.01-0.63,0.03-0.95,0.04
			c0.25,0.35,0.49,0.69,0.74,1.04c0.34,0.33,0.67,0.66,1.01,1c0.34,0.34,0.69,0.68,1.03,1.02c0.31,0.33,0.63,0.66,0.94,0.98
			c3.8,2.3,7.35,5.6,11.48,6.65c5.29,1.34,11.05,0.87,16.6,1.18c1.33,0.05,2.66,0.13,3.99,0.13c99.97,0.01,199.94,0.01,299.91,0
			c1.33,0,2.66-0.08,3.97-0.23c0.07-0.01,0.02-1.08,0.02-1.66c-1-1.69-2.01-3.38-3.01-5.07c-1.68-0.35-3.37-1-5.05-1
			c-99.57-0.05-199.14-0.05-298.71,0c-1.73,0-3.47,0.58-5.2,0.89c-7.26-0.99-14.53-1.98-21.79-2.97
			C16.99,25.53,16.29,25.26,15.58,24.98z"/>
		<path class="st1" d="M348.43,28.89c1,1.69,2.01,3.38,3.01,5.07c-2.07,0.3-4.14,0.85-6.22,0.86
			c-98.47,0.04-196.95,0.03-295.42,0.07c-2.09,0-4.18,0.54-6.26,0.83c-5.55-0.31-11.31,0.16-16.6-1.18
			c-4.12-1.05-7.67-4.35-11.48-6.65c0.37-0.35,0.74-0.69,1.11-1.04c0-0.33,0-0.67,0-1c0.37-0.01,0.74-0.03,1.11-0.04
			c7.26,0.99,14.53,1.98,21.79,2.97c2.5,0.02,5,0.07,7.5,0.07C147.46,28.86,247.95,28.87,348.43,28.89z"/>
		<path class="st2" d="M43.55,35.71c2.09-0.29,4.18-0.83,6.26-0.83c98.47-0.04,196.95-0.03,295.42-0.07c2.07,0,4.14-0.56,6.22-0.86
			c0,0.58,0.05,1.65-0.02,1.66c-1.32,0.15-2.65,0.23-3.97,0.23c-99.97,0.01-199.94,0.01-299.91,0
			C46.21,35.84,44.88,35.76,43.55,35.71z"/>
		<path class="st3" d="M348.43,28.89c-100.49-0.01-200.97-0.03-301.46-0.04c-2.5,0-5-0.05-7.5-0.07c1.73-0.31,3.46-0.89,5.2-0.89
			c99.57-0.04,199.14-0.04,298.71,0C345.07,27.89,346.75,28.54,348.43,28.89z"/>
		<path class="st4" d="M12.48,24.89c-0.25-0.35-0.49-0.69-0.74-1.04c0.32-0.01,0.63-0.02,0.95-0.04c0.65,0.33,1.31,0.66,1.96,0.99
			C13.93,24.83,13.2,24.86,12.48,24.89z"/>
		<path class="st4" d="M16.58,26.85c-0.37,0.35-0.74,0.69-1.11,1.04c-0.31-0.33-0.63-0.66-0.94-0.98c0,0,0.08-0.08,0.08-0.08
			C15.27,26.83,15.92,26.84,16.58,26.85z"/>
		<path class="st4" d="M12.48,24.89c0.72-0.03,1.45-0.06,2.17-0.09c0,0-0.03-0.01-0.04-0.01c-0.01,0.35-0.02,0.7-0.04,1.06
			c-0.36,0.01-0.73,0.02-1.09,0.04C13.15,25.55,12.82,25.22,12.48,24.89z"/>
		<path class="st4" d="M17.69,25.81c-0.37,0.01-0.74,0.03-1.11,0.04c-0.33,0-0.67,0-1,0c0-0.29,0-0.57,0-0.86
			C16.29,25.26,16.99,25.53,17.69,25.81z"/>
		<path class="st4" d="M12.69,23.8c-0.32,0.02-0.63,0.03-0.95,0.04C12.06,23.83,12.38,23.82,12.69,23.8z"/>
		<path class="st4" d="M15.58,24.98c0,0.29,0,0.57,0,0.86c-0.33,0-0.67,0-1,0c0.01-0.35,0.02-0.7,0.04-1.06
			C14.95,24.82,15.27,24.88,15.58,24.98z"/>
		<path class="st4" d="M13.49,25.88c0.36-0.01,0.73-0.02,1.09-0.04c-0.01,0.33,0,0.65,0.03,0.97c0,0-0.08,0.08-0.08,0.08
			C14.18,26.56,13.84,26.22,13.49,25.88z"/>
		<path class="st4" d="M14.61,26.82c-0.02-0.32-0.03-0.65-0.03-0.97c0.33,0,0.67,0,1,0c0.33,0,0.67,0,1,0c0,0.33,0,0.67,0,1
			C15.92,26.84,15.27,26.83,14.61,26.82z"/>
	</g>
</g>
</svg>
