<?xml version="1.0" encoding="utf-8"?>
<!-- Generator: Adobe Illustrator 24.0.1, SVG Export Plug-In . SVG Version: 6.00 Build 0)  -->
<svg version="1.1" id="Calque_1" xmlns="http://www.w3.org/2000/svg" xmlns:xlink="http://www.w3.org/1999/xlink" x="0px" y="0px"
	 viewBox="0 0 131.7 127.9" style="enable-background:new 0 0 131.7 127.9;" xml:space="preserve">
<style type="text/css">
	.st0{fill:url(#SVGID_1_);}
</style>
<g>
	
		<linearGradient id="SVGID_1_" gradientUnits="userSpaceOnUse" x1="8.5596" y1="62.0808" x2="114.7016" y2="62.0808" gradientTransform="matrix(1 0 0 -1 0 127.8898)">
		<stop  offset="0" style="stop-color:#E52428"/>
		<stop  offset="0" style="stop-color:#E62D2C"/>
		<stop  offset="0.2614" style="stop-color:#E94D28"/>
		<stop  offset="1" style="stop-color:#F39200"/>
	</linearGradient>
	<path class="st0" d="M114.6,55.8c0,13.3-0.1,26.7,0.1,40c0.1,7.6-4,12.1-10.3,15c-6.8,3.1-13.7,3.1-19.8-1.7
		c-5.1-4-4.6-11.6,0.9-16.6c4.7-4.3,10.4-6.1,16.6-5.4c3.6,0.4,4.7-0.8,4.7-4.3c-0.1-13.8-0.2-27.7,0-41.5c0.1-4.1-1.7-5.1-5.4-4.9
		c-18.3,1.1-36.4,3.9-54,9.1c-3.5,1-4.7,2.8-4.6,6.4c0.1,17.6-0.1,35.3,0.1,53c0.1,7-2.8,12-8.7,15c-6.7,3.5-13.8,4.1-20.5,0
		c-5.1-3.1-6.4-9.4-3.1-14.4c4.3-6.6,10.8-9.7,18.4-8.9c5.4,0.6,5.9-1.4,5.9-5.9c-0.2-18.8,0-37.6-0.2-56.5c0-4,1.2-5.9,4.9-7.3
		C62.1,18,85.5,12.1,109.8,9c3.9-0.5,5,0.5,4.9,4.3C114.5,27.5,114.6,41.6,114.6,55.8C114.6,55.8,114.6,55.8,114.6,55.8z
		 M106.6,23.4c-0.2-2.2,0.8-5.4-3.5-4.9c-20,2.3-39.1,7.8-57.8,14.9c-3,1.2-2.8,3.5-2.4,5.8c0.6,3,3,1.4,4.5,1
		C65.3,34.9,83.4,31,102,28.9C105.6,28.5,107.1,27,106.6,23.4z"/>
</g>
</svg>
